<svg preserveAspectRatio="xMidYMid meet" data-bbox="1.59 0 177.161 112.628" xmlns="http://www.w3.org/2000/svg" viewBox="0 0 181 125" height="125" width="181" data-type="ugc" role="presentation" aria-hidden="true">
    <g>
        <path fill="#ffffff" d="M21.574 48.824c-2.808-2.088-5.472-2.376-7.128-2.376-2.232 0-4.248.468-5.94 2.196-1.44 1.476-2.088 3.276-2.088 5.4 0 1.152.18 2.844 1.44 4.176.936 1.008 2.232 1.512 3.348 1.908l1.98.684c.684.252 2.16.792 2.808 1.332.504.432.828.936.828 1.728 0 .9-.396 1.548-.864 1.944-.792.684-1.8.828-2.52.828a5.578 5.578 0 0 1-3.024-.864c-.648-.396-1.62-1.224-2.232-1.836l-2.88 3.96c.9.9 2.304 2.016 3.528 2.628 1.512.756 3.024 1.008 4.752 1.008 1.584 0 4.68-.216 6.804-2.448 1.26-1.296 2.124-3.456 2.124-5.94 0-1.404-.36-3.132-1.764-4.464-.936-.9-2.232-1.44-3.276-1.836l-1.8-.684c-1.62-.612-2.448-.828-3.024-1.368-.36-.324-.54-.756-.54-1.332 0-.612.252-1.152.612-1.512.648-.72 1.584-.828 2.34-.828.684 0 2.232.108 4.032 1.728l2.484-4.032zM26.031 71h5.184v-8.028c0-.792.036-2.34 1.08-3.348.288-.288.936-.792 2.052-.792.756 0 1.548.252 2.016.72.828.792.864 2.088.864 3.204V71h5.184V60.812c0-1.224-.108-3.204-1.584-4.68-1.404-1.44-3.276-1.62-4.536-1.62-1.152 0-2.052.108-3.132.684-.612.324-1.296.864-1.944 1.656V44.756h-5.184V71zm20.422 0h5.184v-6.516c0-1.368.108-3.096 1.26-4.32.648-.684 1.477-1.08 2.593-1.08.9 0 1.655.216 2.34.576l.288-4.86a5.204 5.204 0 0 0-1.693-.252c-1.008 0-1.907.144-2.771.684-.829.504-1.549 1.332-2.017 2.232v-2.52h-5.184V71zm31.362-8.028c0-2.052-.792-4.356-2.412-5.976-1.44-1.44-3.888-2.592-7.02-2.592-3.132 0-5.58 1.152-7.02 2.592-1.62 1.62-2.412 3.924-2.412 5.976s.792 4.356 2.412 5.976c1.44 1.44 3.888 2.592 7.02 2.592 3.132 0 5.58-1.152 7.02-2.592 1.62-1.62 2.412-3.924 2.412-5.976zm-9.432-4.176c1.188 0 2.16.396 2.916 1.152.756.756 1.188 1.728 1.188 3.024s-.432 2.268-1.188 3.024c-.756.756-1.728 1.152-2.88 1.152-1.368 0-2.304-.504-2.952-1.152-.612-.612-1.188-1.548-1.188-3.024 0-1.296.432-2.268 1.188-3.024.756-.756 1.728-1.152 2.916-1.152zm30.736 4.176c0-2.052-.792-4.356-2.412-5.976-1.44-1.44-3.888-2.592-7.02-2.592-3.132 0-5.58 1.152-7.02 2.592-1.62 1.62-2.412 3.924-2.412 5.976s.792 4.356 2.412 5.976c1.44 1.44 3.888 2.592 7.02 2.592 3.132 0 5.58-1.152 7.02-2.592 1.62-1.62 2.412-3.924 2.412-5.976zm-9.432-4.176c1.188 0 2.16.396 2.916 1.152.756.756 1.188 1.728 1.188 3.024s-.432 2.268-1.188 3.024c-.756.756-1.728 1.152-2.88 1.152-1.368 0-2.304-.504-2.952-1.152-.612-.612-1.188-1.548-1.188-3.024 0-1.296.432-2.268 1.188-3.024.756-.756 1.728-1.152 2.916-1.152zM102.352 71h5.184v-8.208c0-.54.036-2.34 1.008-3.276.504-.468 1.116-.648 1.8-.648.54 0 1.188.108 1.728.648.792.792.828 2.052.828 3.132V71h5.184v-7.992c0-1.044.108-2.304.792-3.168.432-.576 1.152-.972 2.016-.972.756 0 1.44.324 1.872.864.684.864.684 2.304.684 3.132V71h5.184V60.848c0-1.152-.108-3.312-1.656-4.788-.972-.936-2.556-1.512-4.5-1.512-1.26 0-2.304.216-3.42.9a6.129 6.129 0 0 0-2.052 2.052c-.432-.972-1.116-1.764-1.944-2.232-1.08-.648-2.34-.72-3.024-.72-1.224 0-3.168.252-4.5 2.268v-1.872h-5.184V71zm30.7-16.056V71h5.184V54.944h-5.184zm-.432-6.84a2.996 2.996 0 0 0 3.024 3.024 2.996 2.996 0 0 0 3.024-3.024 2.996 2.996 0 0 0-3.024-3.024 2.996 2.996 0 0 0-3.024 3.024zm14.665 12.672c.144-.72.504-1.296.9-1.728.504-.504 1.296-1.044 2.628-1.044 1.044 0 1.872.36 2.448.9.756.72 1.008 1.728 1.044 1.872h-7.02zm11.808 2.556c0-1.98-.36-4.5-2.268-6.516-1.98-2.088-4.572-2.412-6.372-2.412-1.8 0-4.212.36-6.156 2.304-1.62 1.656-2.448 4.032-2.448 6.336 0 2.664 1.008 4.788 2.412 6.192 1.872 1.872 3.996 2.304 6.408 2.304 1.8 0 3.528-.252 5.076-1.188.936-.576 2.376-1.764 3.096-4.032l-4.896-.504c-.432.9-1.044 1.296-1.116 1.332-.54.324-1.332.468-2.088.468-.792 0-1.872-.144-2.664-1.008-.648-.72-.972-1.872-.972-2.736h11.988v-.54zm15.116-7.56c-1.296-.756-2.952-1.368-5.328-1.368-1.476 0-3.42.288-4.86 1.62-.936.864-1.548 2.16-1.548 3.708 0 1.224.396 2.124 1.152 2.916.684.684 1.656 1.188 2.592 1.476l1.296.396c.756.216 1.224.36 1.584.576.467.288.576.648.576.936 0 .396-.216.792-.54 1.044-.468.36-1.296.36-1.62.36-.684 0-1.44-.144-2.16-.504-.541-.252-1.26-.756-1.764-1.188l-2.196 3.492c2.088 1.836 4.428 2.304 6.588 2.304 1.692 0 3.636-.252 5.22-1.836.72-.72 1.656-2.088 1.656-4.212 0-1.224-.324-2.196-1.26-3.06-.828-.756-1.764-1.116-2.664-1.404l-1.369-.432c-.647-.216-1.187-.324-1.547-.54-.252-.144-.504-.36-.504-.72 0-.252.144-.54.324-.72.324-.324.936-.468 1.475-.468 1.009 0 2.053.432 2.845.9l2.052-3.276z"></path>
        <path fill="url(#svgcid-dys85tz4a8ik)" d="M21.574 48.824c-2.808-2.088-5.472-2.376-7.128-2.376-2.232 0-4.248.468-5.94 2.196-1.44 1.476-2.088 3.276-2.088 5.4 0 1.152.18 2.844 1.44 4.176.936 1.008 2.232 1.512 3.348 1.908l1.98.684c.684.252 2.16.792 2.808 1.332.504.432.828.936.828 1.728 0 .9-.396 1.548-.864 1.944-.792.684-1.8.828-2.52.828a5.578 5.578 0 0 1-3.024-.864c-.648-.396-1.62-1.224-2.232-1.836l-2.88 3.96c.9.9 2.304 2.016 3.528 2.628 1.512.756 3.024 1.008 4.752 1.008 1.584 0 4.68-.216 6.804-2.448 1.26-1.296 2.124-3.456 2.124-5.94 0-1.404-.36-3.132-1.764-4.464-.936-.9-2.232-1.44-3.276-1.836l-1.8-.684c-1.62-.612-2.448-.828-3.024-1.368-.36-.324-.54-.756-.54-1.332 0-.612.252-1.152.612-1.512.648-.72 1.584-.828 2.34-.828.684 0 2.232.108 4.032 1.728l2.484-4.032zM26.031 71h5.184v-8.028c0-.792.036-2.34 1.08-3.348.288-.288.936-.792 2.052-.792.756 0 1.548.252 2.016.72.828.792.864 2.088.864 3.204V71h5.184V60.812c0-1.224-.108-3.204-1.584-4.68-1.404-1.44-3.276-1.62-4.536-1.62-1.152 0-2.052.108-3.132.684-.612.324-1.296.864-1.944 1.656V44.756h-5.184V71zm20.422 0h5.184v-6.516c0-1.368.108-3.096 1.26-4.32.648-.684 1.477-1.08 2.593-1.08.9 0 1.655.216 2.34.576l.288-4.86a5.204 5.204 0 0 0-1.693-.252c-1.008 0-1.907.144-2.771.684-.829.504-1.549 1.332-2.017 2.232v-2.52h-5.184V71zm31.362-8.028c0-2.052-.792-4.356-2.412-5.976-1.44-1.44-3.888-2.592-7.02-2.592-3.132 0-5.58 1.152-7.02 2.592-1.62 1.62-2.412 3.924-2.412 5.976s.792 4.356 2.412 5.976c1.44 1.44 3.888 2.592 7.02 2.592 3.132 0 5.58-1.152 7.02-2.592 1.62-1.62 2.412-3.924 2.412-5.976zm-9.432-4.176c1.188 0 2.16.396 2.916 1.152.756.756 1.188 1.728 1.188 3.024s-.432 2.268-1.188 3.024c-.756.756-1.728 1.152-2.88 1.152-1.368 0-2.304-.504-2.952-1.152-.612-.612-1.188-1.548-1.188-3.024 0-1.296.432-2.268 1.188-3.024.756-.756 1.728-1.152 2.916-1.152zm30.736 4.176c0-2.052-.792-4.356-2.412-5.976-1.44-1.44-3.888-2.592-7.02-2.592-3.132 0-5.58 1.152-7.02 2.592-1.62 1.62-2.412 3.924-2.412 5.976s.792 4.356 2.412 5.976c1.44 1.44 3.888 2.592 7.02 2.592 3.132 0 5.58-1.152 7.02-2.592 1.62-1.62 2.412-3.924 2.412-5.976zm-9.432-4.176c1.188 0 2.16.396 2.916 1.152.756.756 1.188 1.728 1.188 3.024s-.432 2.268-1.188 3.024c-.756.756-1.728 1.152-2.88 1.152-1.368 0-2.304-.504-2.952-1.152-.612-.612-1.188-1.548-1.188-3.024 0-1.296.432-2.268 1.188-3.024.756-.756 1.728-1.152 2.916-1.152zM102.352 71h5.184v-8.208c0-.54.036-2.34 1.008-3.276.504-.468 1.116-.648 1.8-.648.54 0 1.188.108 1.728.648.792.792.828 2.052.828 3.132V71h5.184v-7.992c0-1.044.108-2.304.792-3.168.432-.576 1.152-.972 2.016-.972.756 0 1.44.324 1.872.864.684.864.684 2.304.684 3.132V71h5.184V60.848c0-1.152-.108-3.312-1.656-4.788-.972-.936-2.556-1.512-4.5-1.512-1.26 0-2.304.216-3.42.9a6.129 6.129 0 0 0-2.052 2.052c-.432-.972-1.116-1.764-1.944-2.232-1.08-.648-2.34-.72-3.024-.72-1.224 0-3.168.252-4.5 2.268v-1.872h-5.184V71zm30.7-16.056V71h5.184V54.944h-5.184zm-.432-6.84a2.996 2.996 0 0 0 3.024 3.024 2.996 2.996 0 0 0 3.024-3.024 2.996 2.996 0 0 0-3.024-3.024 2.996 2.996 0 0 0-3.024 3.024zm14.665 12.672c.144-.72.504-1.296.9-1.728.504-.504 1.296-1.044 2.628-1.044 1.044 0 1.872.36 2.448.9.756.72 1.008 1.728 1.044 1.872h-7.02zm11.808 2.556c0-1.98-.36-4.5-2.268-6.516-1.98-2.088-4.572-2.412-6.372-2.412-1.8 0-4.212.36-6.156 2.304-1.62 1.656-2.448 4.032-2.448 6.336 0 2.664 1.008 4.788 2.412 6.192 1.872 1.872 3.996 2.304 6.408 2.304 1.8 0 3.528-.252 5.076-1.188.936-.576 2.376-1.764 3.096-4.032l-4.896-.504c-.432.9-1.044 1.296-1.116 1.332-.54.324-1.332.468-2.088.468-.792 0-1.872-.144-2.664-1.008-.648-.72-.972-1.872-.972-2.736h11.988v-.54zm15.116-7.56c-1.296-.756-2.952-1.368-5.328-1.368-1.476 0-3.42.288-4.86 1.62-.936.864-1.548 2.16-1.548 3.708 0 1.224.396 2.124 1.152 2.916.684.684 1.656 1.188 2.592 1.476l1.296.396c.756.216 1.224.36 1.584.576.467.288.576.648.576.936 0 .396-.216.792-.54 1.044-.468.36-1.296.36-1.62.36-.684 0-1.44-.144-2.16-.504-.541-.252-1.26-.756-1.764-1.188l-2.196 3.492c2.088 1.836 4.428 2.304 6.588 2.304 1.692 0 3.636-.252 5.22-1.836.72-.72 1.656-2.088 1.656-4.212 0-1.224-.324-2.196-1.26-3.06-.828-.756-1.764-1.116-2.664-1.404l-1.369-.432c-.647-.216-1.187-.324-1.547-.54-.252-.144-.504-.36-.504-.72 0-.252.144-.54.324-.72.324-.324.936-.468 1.475-.468 1.009 0 2.053.432 2.845.9l2.052-3.276z"></path>
        <path fill-opacity=".2" fill="url(#svgcid-5njw88-zh10z1)" d="M21.574 48.824c-2.808-2.088-5.472-2.376-7.128-2.376-2.232 0-4.248.468-5.94 2.196-1.44 1.476-2.088 3.276-2.088 5.4 0 1.152.18 2.844 1.44 4.176.936 1.008 2.232 1.512 3.348 1.908l1.98.684c.684.252 2.16.792 2.808 1.332.504.432.828.936.828 1.728 0 .9-.396 1.548-.864 1.944-.792.684-1.8.828-2.52.828a5.578 5.578 0 0 1-3.024-.864c-.648-.396-1.62-1.224-2.232-1.836l-2.88 3.96c.9.9 2.304 2.016 3.528 2.628 1.512.756 3.024 1.008 4.752 1.008 1.584 0 4.68-.216 6.804-2.448 1.26-1.296 2.124-3.456 2.124-5.94 0-1.404-.36-3.132-1.764-4.464-.936-.9-2.232-1.44-3.276-1.836l-1.8-.684c-1.62-.612-2.448-.828-3.024-1.368-.36-.324-.54-.756-.54-1.332 0-.612.252-1.152.612-1.512.648-.72 1.584-.828 2.34-.828.684 0 2.232.108 4.032 1.728l2.484-4.032zM26.031 71h5.184v-8.028c0-.792.036-2.34 1.08-3.348.288-.288.936-.792 2.052-.792.756 0 1.548.252 2.016.72.828.792.864 2.088.864 3.204V71h5.184V60.812c0-1.224-.108-3.204-1.584-4.68-1.404-1.44-3.276-1.62-4.536-1.62-1.152 0-2.052.108-3.132.684-.612.324-1.296.864-1.944 1.656V44.756h-5.184V71zm20.422 0h5.184v-6.516c0-1.368.108-3.096 1.26-4.32.648-.684 1.477-1.08 2.593-1.08.9 0 1.655.216 2.34.576l.288-4.86a5.204 5.204 0 0 0-1.693-.252c-1.008 0-1.907.144-2.771.684-.829.504-1.549 1.332-2.017 2.232v-2.52h-5.184V71zm31.362-8.028c0-2.052-.792-4.356-2.412-5.976-1.44-1.44-3.888-2.592-7.02-2.592-3.132 0-5.58 1.152-7.02 2.592-1.62 1.62-2.412 3.924-2.412 5.976s.792 4.356 2.412 5.976c1.44 1.44 3.888 2.592 7.02 2.592 3.132 0 5.58-1.152 7.02-2.592 1.62-1.62 2.412-3.924 2.412-5.976zm-9.432-4.176c1.188 0 2.16.396 2.916 1.152.756.756 1.188 1.728 1.188 3.024s-.432 2.268-1.188 3.024c-.756.756-1.728 1.152-2.88 1.152-1.368 0-2.304-.504-2.952-1.152-.612-.612-1.188-1.548-1.188-3.024 0-1.296.432-2.268 1.188-3.024.756-.756 1.728-1.152 2.916-1.152zm30.736 4.176c0-2.052-.792-4.356-2.412-5.976-1.44-1.44-3.888-2.592-7.02-2.592-3.132 0-5.58 1.152-7.02 2.592-1.62 1.62-2.412 3.924-2.412 5.976s.792 4.356 2.412 5.976c1.44 1.44 3.888 2.592 7.02 2.592 3.132 0 5.58-1.152 7.02-2.592 1.62-1.62 2.412-3.924 2.412-5.976zm-9.432-4.176c1.188 0 2.16.396 2.916 1.152.756.756 1.188 1.728 1.188 3.024s-.432 2.268-1.188 3.024c-.756.756-1.728 1.152-2.88 1.152-1.368 0-2.304-.504-2.952-1.152-.612-.612-1.188-1.548-1.188-3.024 0-1.296.432-2.268 1.188-3.024.756-.756 1.728-1.152 2.916-1.152zM102.352 71h5.184v-8.208c0-.54.036-2.34 1.008-3.276.504-.468 1.116-.648 1.8-.648.54 0 1.188.108 1.728.648.792.792.828 2.052.828 3.132V71h5.184v-7.992c0-1.044.108-2.304.792-3.168.432-.576 1.152-.972 2.016-.972.756 0 1.44.324 1.872.864.684.864.684 2.304.684 3.132V71h5.184V60.848c0-1.152-.108-3.312-1.656-4.788-.972-.936-2.556-1.512-4.5-1.512-1.26 0-2.304.216-3.42.9a6.129 6.129 0 0 0-2.052 2.052c-.432-.972-1.116-1.764-1.944-2.232-1.08-.648-2.34-.72-3.024-.72-1.224 0-3.168.252-4.5 2.268v-1.872h-5.184V71zm30.7-16.056V71h5.184V54.944h-5.184zm-.432-6.84a2.996 2.996 0 0 0 3.024 3.024 2.996 2.996 0 0 0 3.024-3.024 2.996 2.996 0 0 0-3.024-3.024 2.996 2.996 0 0 0-3.024 3.024zm14.665 12.672c.144-.72.504-1.296.9-1.728.504-.504 1.296-1.044 2.628-1.044 1.044 0 1.872.36 2.448.9.756.72 1.008 1.728 1.044 1.872h-7.02zm11.808 2.556c0-1.98-.36-4.5-2.268-6.516-1.98-2.088-4.572-2.412-6.372-2.412-1.8 0-4.212.36-6.156 2.304-1.62 1.656-2.448 4.032-2.448 6.336 0 2.664 1.008 4.788 2.412 6.192 1.872 1.872 3.996 2.304 6.408 2.304 1.8 0 3.528-.252 5.076-1.188.936-.576 2.376-1.764 3.096-4.032l-4.896-.504c-.432.9-1.044 1.296-1.116 1.332-.54.324-1.332.468-2.088.468-.792 0-1.872-.144-2.664-1.008-.648-.72-.972-1.872-.972-2.736h11.988v-.54zm15.116-7.56c-1.296-.756-2.952-1.368-5.328-1.368-1.476 0-3.42.288-4.86 1.62-.936.864-1.548 2.16-1.548 3.708 0 1.224.396 2.124 1.152 2.916.684.684 1.656 1.188 2.592 1.476l1.296.396c.756.216 1.224.36 1.584.576.467.288.576.648.576.936 0 .396-.216.792-.54 1.044-.468.36-1.296.36-1.62.36-.684 0-1.44-.144-2.16-.504-.541-.252-1.26-.756-1.764-1.188l-2.196 3.492c2.088 1.836 4.428 2.304 6.588 2.304 1.692 0 3.636-.252 5.22-1.836.72-.72 1.656-2.088 1.656-4.212 0-1.224-.324-2.196-1.26-3.06-.828-.756-1.764-1.116-2.664-1.404l-1.369-.432c-.647-.216-1.187-.324-1.547-.54-.252-.144-.504-.36-.504-.72 0-.252.144-.54.324-.72.324-.324.936-.468 1.475-.468 1.009 0 2.053.432 2.845.9l2.052-3.276z"></path>
        <path fill-opacity=".2" fill="url(#svgcid--17omn03f688w)" d="M21.574 48.824c-2.808-2.088-5.472-2.376-7.128-2.376-2.232 0-4.248.468-5.94 2.196-1.44 1.476-2.088 3.276-2.088 5.4 0 1.152.18 2.844 1.44 4.176.936 1.008 2.232 1.512 3.348 1.908l1.98.684c.684.252 2.16.792 2.808 1.332.504.432.828.936.828 1.728 0 .9-.396 1.548-.864 1.944-.792.684-1.8.828-2.52.828a5.578 5.578 0 0 1-3.024-.864c-.648-.396-1.62-1.224-2.232-1.836l-2.88 3.96c.9.9 2.304 2.016 3.528 2.628 1.512.756 3.024 1.008 4.752 1.008 1.584 0 4.68-.216 6.804-2.448 1.26-1.296 2.124-3.456 2.124-5.94 0-1.404-.36-3.132-1.764-4.464-.936-.9-2.232-1.44-3.276-1.836l-1.8-.684c-1.62-.612-2.448-.828-3.024-1.368-.36-.324-.54-.756-.54-1.332 0-.612.252-1.152.612-1.512.648-.72 1.584-.828 2.34-.828.684 0 2.232.108 4.032 1.728l2.484-4.032zM26.031 71h5.184v-8.028c0-.792.036-2.34 1.08-3.348.288-.288.936-.792 2.052-.792.756 0 1.548.252 2.016.72.828.792.864 2.088.864 3.204V71h5.184V60.812c0-1.224-.108-3.204-1.584-4.68-1.404-1.44-3.276-1.62-4.536-1.62-1.152 0-2.052.108-3.132.684-.612.324-1.296.864-1.944 1.656V44.756h-5.184V71zm20.422 0h5.184v-6.516c0-1.368.108-3.096 1.26-4.32.648-.684 1.477-1.08 2.593-1.08.9 0 1.655.216 2.34.576l.288-4.86a5.204 5.204 0 0 0-1.693-.252c-1.008 0-1.907.144-2.771.684-.829.504-1.549 1.332-2.017 2.232v-2.52h-5.184V71zm31.362-8.028c0-2.052-.792-4.356-2.412-5.976-1.44-1.44-3.888-2.592-7.02-2.592-3.132 0-5.58 1.152-7.02 2.592-1.62 1.62-2.412 3.924-2.412 5.976s.792 4.356 2.412 5.976c1.44 1.44 3.888 2.592 7.02 2.592 3.132 0 5.58-1.152 7.02-2.592 1.62-1.62 2.412-3.924 2.412-5.976zm-9.432-4.176c1.188 0 2.16.396 2.916 1.152.756.756 1.188 1.728 1.188 3.024s-.432 2.268-1.188 3.024c-.756.756-1.728 1.152-2.88 1.152-1.368 0-2.304-.504-2.952-1.152-.612-.612-1.188-1.548-1.188-3.024 0-1.296.432-2.268 1.188-3.024.756-.756 1.728-1.152 2.916-1.152zm30.736 4.176c0-2.052-.792-4.356-2.412-5.976-1.44-1.44-3.888-2.592-7.02-2.592-3.132 0-5.58 1.152-7.02 2.592-1.62 1.62-2.412 3.924-2.412 5.976s.792 4.356 2.412 5.976c1.44 1.44 3.888 2.592 7.02 2.592 3.132 0 5.58-1.152 7.02-2.592 1.62-1.62 2.412-3.924 2.412-5.976zm-9.432-4.176c1.188 0 2.16.396 2.916 1.152.756.756 1.188 1.728 1.188 3.024s-.432 2.268-1.188 3.024c-.756.756-1.728 1.152-2.88 1.152-1.368 0-2.304-.504-2.952-1.152-.612-.612-1.188-1.548-1.188-3.024 0-1.296.432-2.268 1.188-3.024.756-.756 1.728-1.152 2.916-1.152zM102.352 71h5.184v-8.208c0-.54.036-2.34 1.008-3.276.504-.468 1.116-.648 1.8-.648.54 0 1.188.108 1.728.648.792.792.828 2.052.828 3.132V71h5.184v-7.992c0-1.044.108-2.304.792-3.168.432-.576 1.152-.972 2.016-.972.756 0 1.44.324 1.872.864.684.864.684 2.304.684 3.132V71h5.184V60.848c0-1.152-.108-3.312-1.656-4.788-.972-.936-2.556-1.512-4.5-1.512-1.26 0-2.304.216-3.42.9a6.129 6.129 0 0 0-2.052 2.052c-.432-.972-1.116-1.764-1.944-2.232-1.08-.648-2.34-.72-3.024-.72-1.224 0-3.168.252-4.5 2.268v-1.872h-5.184V71zm30.7-16.056V71h5.184V54.944h-5.184zm-.432-6.84a2.996 2.996 0 0 0 3.024 3.024 2.996 2.996 0 0 0 3.024-3.024 2.996 2.996 0 0 0-3.024-3.024 2.996 2.996 0 0 0-3.024 3.024zm14.665 12.672c.144-.72.504-1.296.9-1.728.504-.504 1.296-1.044 2.628-1.044 1.044 0 1.872.36 2.448.9.756.72 1.008 1.728 1.044 1.872h-7.02zm11.808 2.556c0-1.98-.36-4.5-2.268-6.516-1.98-2.088-4.572-2.412-6.372-2.412-1.8 0-4.212.36-6.156 2.304-1.62 1.656-2.448 4.032-2.448 6.336 0 2.664 1.008 4.788 2.412 6.192 1.872 1.872 3.996 2.304 6.408 2.304 1.8 0 3.528-.252 5.076-1.188.936-.576 2.376-1.764 3.096-4.032l-4.896-.504c-.432.9-1.044 1.296-1.116 1.332-.54.324-1.332.468-2.088.468-.792 0-1.872-.144-2.664-1.008-.648-.72-.972-1.872-.972-2.736h11.988v-.54zm15.116-7.56c-1.296-.756-2.952-1.368-5.328-1.368-1.476 0-3.42.288-4.86 1.62-.936.864-1.548 2.16-1.548 3.708 0 1.224.396 2.124 1.152 2.916.684.684 1.656 1.188 2.592 1.476l1.296.396c.756.216 1.224.36 1.584.576.467.288.576.648.576.936 0 .396-.216.792-.54 1.044-.468.36-1.296.36-1.62.36-.684 0-1.44-.144-2.16-.504-.541-.252-1.26-.756-1.764-1.188l-2.196 3.492c2.088 1.836 4.428 2.304 6.588 2.304 1.692 0 3.636-.252 5.22-1.836.72-.72 1.656-2.088 1.656-4.212 0-1.224-.324-2.196-1.26-3.06-.828-.756-1.764-1.116-2.664-1.404l-1.369-.432c-.647-.216-1.187-.324-1.547-.54-.252-.144-.504-.36-.504-.72 0-.252.144-.54.324-.72.324-.324.936-.468 1.475-.468 1.009 0 2.053.432 2.845.9l2.052-3.276z"></path>
        <path fill="#ffffff" d="M76 11.735C76 5.254 81.254 0 87.735 0h5.322c6.48 0 11.735 5.254 11.735 11.735a6.166 6.166 0 0 1-6.166 6.166h-.876a7.24 7.24 0 0 1 .25 1.892v2.913c0 2.137-1.778 3.84-3.934 3.84H86.71c-2.157 0-3.935-1.703-3.935-3.84v-2.913c0-.653.087-1.288.25-1.892h-.86A6.166 6.166 0 0 1 76 11.735zm1.262-1.218c.184.176.347.498.426.882.129.626-.012 1.182-.314 1.243a.285.285 0 0 1-.099.002 4.975 4.975 0 0 0 4.89 4.065h16.461a4.97 4.97 0 0 0 4.289-2.455c-.123.045-.258.07-.399.07-.583 0-1.056-.42-1.056-.94 0-.518.473-.939 1.056-.939.406 0 .758.204.935.503a5 5 0 0 0 .149-1.213c0-.655-.06-1.297-.175-1.92a.656.656 0 0 1-.185.13c-.653.3-1.697-.551-2.332-1.902-.635-1.351-.62-2.69.032-2.991a.66.66 0 0 1 .223-.058 10.521 10.521 0 0 0-8.106-3.802h-5.322c-.254 0-.506.01-.755.027.018.03.035.06.05.092.464.94-.43 2.317-1.999 3.076-1.568.758-3.215.61-3.679-.33a1.227 1.227 0 0 1-.12-.62 10.53 10.53 0 0 0-3.97 7.08zm19.244 7.384H84.27a6.037 6.037 0 0 0-.303 1.892v2.913c0 1.446 1.212 2.647 2.743 2.647h7.356c1.53 0 2.742-1.201 2.742-2.647v-2.913c0-.66-.106-1.296-.302-1.892zM92.366 3.57c0 .67-.642 1.215-1.434 1.215-.791 0-1.433-.544-1.433-1.215s.642-1.215 1.433-1.215 1.433.544 1.433 1.215zm-10.02 5.084c.567.983.205 2.244-.809 2.817-1.013.572-2.294.24-2.86-.743-.567-.983-.205-2.244.808-2.817 1.014-.573 2.295-.24 2.861.743zm5.026-1.584c0 .519-.473.94-1.056.94-.583 0-1.055-.421-1.055-.94 0-.518.472-.939 1.055-.939s1.056.42 1.056.94zm-.284 9.613c1.911-.156 3.35-1.598 3.216-3.22-.136-1.621-1.794-2.81-3.705-2.653-1.91.156-3.35 1.597-3.215 3.219.135 1.621 1.794 2.81 3.704 2.654zm7.857-13.79c.735-.612 2.093-.21 3.034.896.94 1.107 1.106 2.5.37 3.113-.735.612-2.094.212-3.034-.895s-1.106-2.5-.37-3.113zm3.087 8.822c-.44 1.218-2.026 1.77-3.542 1.233-1.515-.537-2.387-1.96-1.947-3.179.44-1.218 2.026-1.77 3.542-1.232 1.515.537 2.387 1.96 1.947 3.178z" clip-rule="evenodd" fill-rule="evenodd"></path>
        <path fill="url(#svgcid-pd7iahz4x4y3)" d="M76 11.735C76 5.254 81.254 0 87.735 0h5.322c6.48 0 11.735 5.254 11.735 11.735a6.166 6.166 0 0 1-6.166 6.166h-.876a7.24 7.24 0 0 1 .25 1.892v2.913c0 2.137-1.778 3.84-3.934 3.84H86.71c-2.157 0-3.935-1.703-3.935-3.84v-2.913c0-.653.087-1.288.25-1.892h-.86A6.166 6.166 0 0 1 76 11.735zm1.262-1.218c.184.176.347.498.426.882.129.626-.012 1.182-.314 1.243a.285.285 0 0 1-.099.002 4.975 4.975 0 0 0 4.89 4.065h16.461a4.97 4.97 0 0 0 4.289-2.455c-.123.045-.258.07-.399.07-.583 0-1.056-.42-1.056-.94 0-.518.473-.939 1.056-.939.406 0 .758.204.935.503a5 5 0 0 0 .149-1.213c0-.655-.06-1.297-.175-1.92a.656.656 0 0 1-.185.13c-.653.3-1.697-.551-2.332-1.902-.635-1.351-.62-2.69.032-2.991a.66.66 0 0 1 .223-.058 10.521 10.521 0 0 0-8.106-3.802h-5.322c-.254 0-.506.01-.755.027.018.03.035.06.05.092.464.94-.43 2.317-1.999 3.076-1.568.758-3.215.61-3.679-.33a1.227 1.227 0 0 1-.12-.62 10.53 10.53 0 0 0-3.97 7.08zm19.244 7.384H84.27a6.037 6.037 0 0 0-.303 1.892v2.913c0 1.446 1.212 2.647 2.743 2.647h7.356c1.53 0 2.742-1.201 2.742-2.647v-2.913c0-.66-.106-1.296-.302-1.892zM92.366 3.57c0 .67-.642 1.215-1.434 1.215-.791 0-1.433-.544-1.433-1.215s.642-1.215 1.433-1.215 1.433.544 1.433 1.215zm-10.02 5.084c.567.983.205 2.244-.809 2.817-1.013.572-2.294.24-2.86-.743-.567-.983-.205-2.244.808-2.817 1.014-.573 2.295-.24 2.861.743zm5.026-1.584c0 .519-.473.94-1.056.94-.583 0-1.055-.421-1.055-.94 0-.518.472-.939 1.055-.939s1.056.42 1.056.94zm-.284 9.613c1.911-.156 3.35-1.598 3.216-3.22-.136-1.621-1.794-2.81-3.705-2.653-1.91.156-3.35 1.597-3.215 3.219.135 1.621 1.794 2.81 3.704 2.654zm7.857-13.79c.735-.612 2.093-.21 3.034.896.94 1.107 1.106 2.5.37 3.113-.735.612-2.094.212-3.034-.895s-1.106-2.5-.37-3.113zm3.087 8.822c-.44 1.218-2.026 1.77-3.542 1.233-1.515-.537-2.387-1.96-1.947-3.179.44-1.218 2.026-1.77 3.542-1.232 1.515.537 2.387 1.96 1.947 3.178z" clip-rule="evenodd" fill-rule="evenodd"></path>
        <path fill-opacity=".2" fill="url(#svgcid-v2rsarruvfpo)" d="M76 11.735C76 5.254 81.254 0 87.735 0h5.322c6.48 0 11.735 5.254 11.735 11.735a6.166 6.166 0 0 1-6.166 6.166h-.876a7.24 7.24 0 0 1 .25 1.892v2.913c0 2.137-1.778 3.84-3.934 3.84H86.71c-2.157 0-3.935-1.703-3.935-3.84v-2.913c0-.653.087-1.288.25-1.892h-.86A6.166 6.166 0 0 1 76 11.735zm1.262-1.218c.184.176.347.498.426.882.129.626-.012 1.182-.314 1.243a.285.285 0 0 1-.099.002 4.975 4.975 0 0 0 4.89 4.065h16.461a4.97 4.97 0 0 0 4.289-2.455c-.123.045-.258.07-.399.07-.583 0-1.056-.42-1.056-.94 0-.518.473-.939 1.056-.939.406 0 .758.204.935.503a5 5 0 0 0 .149-1.213c0-.655-.06-1.297-.175-1.92a.656.656 0 0 1-.185.13c-.653.3-1.697-.551-2.332-1.902-.635-1.351-.62-2.69.032-2.991a.66.66 0 0 1 .223-.058 10.521 10.521 0 0 0-8.106-3.802h-5.322c-.254 0-.506.01-.755.027.018.03.035.06.05.092.464.94-.43 2.317-1.999 3.076-1.568.758-3.215.61-3.679-.33a1.227 1.227 0 0 1-.12-.62 10.53 10.53 0 0 0-3.97 7.08zm19.244 7.384H84.27a6.037 6.037 0 0 0-.303 1.892v2.913c0 1.446 1.212 2.647 2.743 2.647h7.356c1.53 0 2.742-1.201 2.742-2.647v-2.913c0-.66-.106-1.296-.302-1.892zM92.366 3.57c0 .67-.642 1.215-1.434 1.215-.791 0-1.433-.544-1.433-1.215s.642-1.215 1.433-1.215 1.433.544 1.433 1.215zm-10.02 5.084c.567.983.205 2.244-.809 2.817-1.013.572-2.294.24-2.86-.743-.567-.983-.205-2.244.808-2.817 1.014-.573 2.295-.24 2.861.743zm5.026-1.584c0 .519-.473.94-1.056.94-.583 0-1.055-.421-1.055-.94 0-.518.472-.939 1.055-.939s1.056.42 1.056.94zm-.284 9.613c1.911-.156 3.35-1.598 3.216-3.22-.136-1.621-1.794-2.81-3.705-2.653-1.91.156-3.35 1.597-3.215 3.219.135 1.621 1.794 2.81 3.704 2.654zm7.857-13.79c.735-.612 2.093-.21 3.034.896.94 1.107 1.106 2.5.37 3.113-.735.612-2.094.212-3.034-.895s-1.106-2.5-.37-3.113zm3.087 8.822c-.44 1.218-2.026 1.77-3.542 1.233-1.515-.537-2.387-1.96-1.947-3.179.44-1.218 2.026-1.77 3.542-1.232 1.515.537 2.387 1.96 1.947 3.178z" clip-rule="evenodd" fill-rule="evenodd"></path>
        <path fill-opacity=".2" fill="url(#svgcid-pa6ue1kc3qhb)" d="M76 11.735C76 5.254 81.254 0 87.735 0h5.322c6.48 0 11.735 5.254 11.735 11.735a6.166 6.166 0 0 1-6.166 6.166h-.876a7.24 7.24 0 0 1 .25 1.892v2.913c0 2.137-1.778 3.84-3.934 3.84H86.71c-2.157 0-3.935-1.703-3.935-3.84v-2.913c0-.653.087-1.288.25-1.892h-.86A6.166 6.166 0 0 1 76 11.735zm1.262-1.218c.184.176.347.498.426.882.129.626-.012 1.182-.314 1.243a.285.285 0 0 1-.099.002 4.975 4.975 0 0 0 4.89 4.065h16.461a4.97 4.97 0 0 0 4.289-2.455c-.123.045-.258.07-.399.07-.583 0-1.056-.42-1.056-.94 0-.518.473-.939 1.056-.939.406 0 .758.204.935.503a5 5 0 0 0 .149-1.213c0-.655-.06-1.297-.175-1.92a.656.656 0 0 1-.185.13c-.653.3-1.697-.551-2.332-1.902-.635-1.351-.62-2.69.032-2.991a.66.66 0 0 1 .223-.058 10.521 10.521 0 0 0-8.106-3.802h-5.322c-.254 0-.506.01-.755.027.018.03.035.06.05.092.464.94-.43 2.317-1.999 3.076-1.568.758-3.215.61-3.679-.33a1.227 1.227 0 0 1-.12-.62 10.53 10.53 0 0 0-3.97 7.08zm19.244 7.384H84.27a6.037 6.037 0 0 0-.303 1.892v2.913c0 1.446 1.212 2.647 2.743 2.647h7.356c1.53 0 2.742-1.201 2.742-2.647v-2.913c0-.66-.106-1.296-.302-1.892zM92.366 3.57c0 .67-.642 1.215-1.434 1.215-.791 0-1.433-.544-1.433-1.215s.642-1.215 1.433-1.215 1.433.544 1.433 1.215zm-10.02 5.084c.567.983.205 2.244-.809 2.817-1.013.572-2.294.24-2.86-.743-.567-.983-.205-2.244.808-2.817 1.014-.573 2.295-.24 2.861.743zm5.026-1.584c0 .519-.473.94-1.056.94-.583 0-1.055-.421-1.055-.94 0-.518.472-.939 1.055-.939s1.056.42 1.056.94zm-.284 9.613c1.911-.156 3.35-1.598 3.216-3.22-.136-1.621-1.794-2.81-3.705-2.653-1.91.156-3.35 1.597-3.215 3.219.135 1.621 1.794 2.81 3.704 2.654zm7.857-13.79c.735-.612 2.093-.21 3.034.896.94 1.107 1.106 2.5.37 3.113-.735.612-2.094.212-3.034-.895s-1.106-2.5-.37-3.113zm3.087 8.822c-.44 1.218-2.026 1.77-3.542 1.233-1.515-.537-2.387-1.96-1.947-3.179.44-1.218 2.026-1.77 3.542-1.232 1.515.537 2.387 1.96 1.947 3.178z" clip-rule="evenodd" fill-rule="evenodd"></path>
        <path fill="#000000" d="M3.354 88.878H1.59V102h1.764v-.792c.774.9 1.728 1.026 2.268 1.026 2.34 0 3.672-1.944 3.672-4.032 0-2.466-1.692-3.978-3.69-3.978-.558 0-1.53.144-2.25 1.08v-6.426zm2.034 6.93c1.278 0 2.106 1.08 2.106 2.43 0 1.314-.828 2.412-2.106 2.412-1.116 0-2.142-.81-2.142-2.394 0-1.656 1.026-2.448 2.142-2.448zm5.013 10.314h1.98l6.03-11.7h-1.98l-2.196 4.428-2.16-4.428H9.95l3.24 6.39-2.79 5.31z"></path>
        <path stroke-width="2.237" stroke-opacity=".66" stroke="#FF0000" d="M160.051 87.067a56.354 56.354 0 0 1 3.13-3.237l-2.983 5.495 4.073-3.329c-1.531 2.214-4.393 6.512-3.593 5.994.8-.517 3.271-3.41 4.407-4.79-1.186 1.874-3.482 5.631-3.186 5.66.37.038 6.092-6.677 7.759-8.379 1.666-1.701 7.739-6.325 5.647-5.974-2.091.35-7.016 4.715-7.257 5.252-.241.536 6.311-1.422 7.681-2.032 1.37-.61-16.164 13.89-13.164 11.948 2.999-1.941 15.699-11.132 14.421-9.578-1.277 1.554-17.089 13.797-13.349 11.93 3.739-1.868 13.589-10.598 11.811-7.786-1.422 2.25-7.221 7.374-9.943 9.656l8.312-4.586-6.648 6.622 5.869-4.457-4.111 5.569c.808-.605 2.684-1.787 3.721-1.683" fill="none"></path>
        <g filter="url(#svgcid--w0ygk4-2ls5bg)">
            <path fill-opacity=".95" fill="#070012" d="m65.77 100.562-.82.25-.187-.152a8.273 8.273 0 0 0-.842-.628 10.289 10.289 0 0 1-1.107-1.127 1.242 1.242 0 0 1-.104-1.582c.253-.442.553-.856.895-1.233.71-.717 1.45-1.412 2.187-2.103l.452-.426c.13-.121.28-.247.422-.369a7.9 7.9 0 0 0 .459-.407c.214-.216.416-.461.25-.8a.716.716 0 0 0-.899-.328 4.82 4.82 0 0 0-1.003.44 13.97 13.97 0 0 0-3.543 2.988c-.38.424-.72.883-1.018 1.369a3.08 3.08 0 0 0 .122 3.372c.398.584.844 1.133 1.334 1.643a6.4 6.4 0 0 0 .708.63 4.58 4.58 0 0 0-1.353 3.553c-2.008.907-5.663-.349-6.509-2.234.045-.07.096-.143.148-.22.061-.087.125-.179.184-.275a18.938 18.938 0 0 0 2.712-5.788 5.176 5.176 0 0 0 .108-1.755 1.983 1.983 0 0 0-.895-1.64 1.996 1.996 0 0 0-1.864-.176 4.056 4.056 0 0 0-1.494.938 6.585 6.585 0 0 0-1.571 2.208 8.91 8.91 0 0 0-.48 5.698.782.782 0 0 1-.286.898 6.115 6.115 0 0 1-1.793 1.135 2.298 2.298 0 0 1-3.086-.934 7.492 7.492 0 0 1-.886-1.687 13.392 13.392 0 0 1-.634-4.148 16.293 16.293 0 0 0-.128-1.884 1.256 1.256 0 0 0-.993-1.12 1.307 1.307 0 0 0-1.467.51 6.588 6.588 0 0 0-.698 1.074 129.812 129.812 0 0 1-1.657 3.592l-.264.556a.598.598 0 0 1 .024-.399c.067-.388.136-.775.204-1.162.137-.774.275-1.548.399-2.323a15.89 15.89 0 0 0 .224-2.005 1.298 1.298 0 0 0-.835-1.355 1.293 1.293 0 0 0-1.466.497c-.367.432-.703.89-1.003 1.37a39.359 39.359 0 0 0-3.535 7.041 262.597 262.597 0 0 1-2.324 5.784 14.332 14.332 0 0 1-.878 1.678 3.609 3.609 0 0 1-.555.61 5.941 5.941 0 0 1-.397-.783l-.04-.128c-.166-.525-.33-1.04-.443-1.577a26.442 26.442 0 0 1-.28-6.389A131.692 131.692 0 0 1 31.4 84.554c.644-3.683 1.456-7.312 2.34-10.937a49.337 49.337 0 0 1 2.587-8.431c.068-.148.116-.304.144-.464a.684.684 0 0 0-.314-.781.69.69 0 0 0-.836.109c-.215.216-.4.46-.548.725a17.017 17.017 0 0 0-1.51 3.543 145.87 145.87 0 0 0-3.787 14.857c-.791 3.975-1.454 7.971-1.932 11.993a56.233 56.233 0 0 0-.434 10.296c.048 1.484.33 2.951.837 4.347a6.4 6.4 0 0 0 .878 1.601 2.02 2.02 0 0 0 2.217.721c.265-.082.51-.217.72-.397a4.17 4.17 0 0 0 .89-.919c.28-.374.521-.777.72-1.201a183.98 183.98 0 0 0 1.547-3.455l2.527-6.058c.054-.124.124-.242.194-.358.039-.065.078-.13.113-.196.042.204.029.416-.038.614-.032.208-.07.415-.108.623-.077.415-.154.83-.18 1.249a25.027 25.027 0 0 0-.277 4.507 3.8 3.8 0 0 0 .188 1.143 1.342 1.342 0 0 0 1.005.89 1.344 1.344 0 0 0 1.277-.42c.232-.26.424-.552.57-.867.348-.752.668-1.52.989-2.302.549-1.455 1.13-2.965 1.704-4.361.02-.042.035-.088.051-.134.053-.153.109-.316.313-.402.025.214.065.427.118.637.061.228.12.455.178.68v.001c.2.764.392 1.51.647 2.233.334.93.907 1.755 1.661 2.393a4.476 4.476 0 0 0 3.489 1.161 7.007 7.007 0 0 0 3.65-1.45l.527-.412.134.14v.001c.1.106.19.199.285.286a6.655 6.655 0 0 0 2.72 1.757 4.866 4.866 0 0 0 5.037-.921.69.69 0 0 1 .178-.089l-.005.086c.012.052.034.107.056.163v.001a.74.74 0 0 1 .073.302 8.29 8.29 0 0 0 2.629 3.927 4.375 4.375 0 0 0 2.805 1.061 2.678 2.678 0 0 0 2.786-2.104c.126-.537.16-1.092.101-1.641a7.7 7.7 0 0 0-2.038-4.421c-.504-.579-1.065-1.095-1.629-1.614a51.76 51.76 0 0 1-.646-.602 4.966 4.966 0 0 0-.464-.401.567.567 0 0 1 .145-.267c.096-.118.186-.228.085-.434zm-2.17 3.975a2.424 2.424 0 0 1 .444-1.605c.166.139.333.266.505.397.152.116.307.234.467.365a26.392 26.392 0 0 1 2.034 2.172 4.73 4.73 0 0 1 1.008 2.267c.02.263.003.527-.048.785-.05.584-.351.809-.917.673a3.086 3.086 0 0 1-1.105-.483 6.08 6.08 0 0 1-2.388-4.571zm-9.071-6.763a4.686 4.686 0 0 1 1.33-1.79l.115.008a18.276 18.276 0 0 1-1.796 3.983 4.676 4.676 0 0 1 .35-2.2zm25.335 13.837c.024.321.047.644.011.965l.224.052c.177-.124.341-.264.492-.417.21-.299.398-.611.563-.935a14.08 14.08 0 0 0 1.149-3.539c.343-1.925.651-3.853.96-5.781l.232-1.446a1.23 1.23 0 0 1 .441-.814l.39-.347c.786-.697 1.57-1.394 2.292-2.147a38.99 38.99 0 0 0 4.906-6.479c.06-.1.124-.193.188-.285l.12-.18a54.11 54.11 0 0 1-.374 2.198c-.175.951-.35 1.895-.454 2.846a38.21 38.21 0 0 0-.576 7.525c.037 1.589.285 3.167.737 4.691a6.38 6.38 0 0 0 1.41 2.528 3.71 3.71 0 0 0 3.325 1.217 9.247 9.247 0 0 0 1.822-.472 11.192 11.192 0 0 0 2.887-1.662 23.824 23.824 0 0 0 4.111-4.06l.39-.469.094.01.4.409a4.797 4.797 0 0 0 3.886 1.521 6.086 6.086 0 0 0 2.817-1.036l.579-.34-.162 1.465c-.015.982-.017 1.979.036 2.969.051.378.171.743.354 1.077a.535.535 0 0 0 .623.352c.146-.469.194-.895.241-1.321.136-.558.281-1.111.427-1.665a90.03 90.03 0 0 0 .428-1.664c.348-1.495.69-2.991 1.031-4.487.691-3.025 1.381-6.049 2.13-9.06 1.03-4.079 2.116-8.152 3.202-12.225l.929-3.491c.24-.875.504-1.743.768-2.611h.001c.162-.534.325-1.068.482-1.604.13-.444.026-.725-.257-.85a.675.675 0 0 0-.822.34c-.198.28-.363.583-.492.902-.149.377-.302.753-.455 1.129-.424 1.04-.847 2.08-1.194 3.15-1.803 5.664-3.397 11.404-4.887 17.17-.519 1.975-.981 3.963-1.443 5.954-.203.873-.406 1.746-.614 2.619-.034.185-.068.37-.28.454a8.965 8.965 0 0 1-3.366.868 3.18 3.18 0 0 1-3.008-2.004l.339-.502c.244-.407.494-.806.744-1.205.48-.766.961-1.535 1.409-2.371a13.379 13.379 0 0 0 1.375-3.393 4.44 4.44 0 0 0 .107-1.578 1.611 1.611 0 0 0-.756-1.234 1.625 1.625 0 0 0-1.443-.142 3.139 3.139 0 0 0-.947.502 9.17 9.17 0 0 0-1.282 1.206 9.777 9.777 0 0 0-2.125 7.717.913.913 0 0 1-.162.737 28.685 28.685 0 0 1-3.095 3.539 13.419 13.419 0 0 1-2.852 2.205c-.574.31-1.177.564-1.8.758a1.684 1.684 0 0 1-2.113-.814 4.357 4.357 0 0 1-.474-.969 11.11 11.11 0 0 1-.401-1.5 23.962 23.962 0 0 1-.14-7.294 72.73 72.73 0 0 1 1.633-9.496 62.496 62.496 0 0 1 3.876-12.187c.09-.19.149-.393.174-.6a1.083 1.083 0 0 0-.683-1.155 1.063 1.063 0 0 0-1.24.335 2.486 2.486 0 0 0-.367.633c-.469 1.066-.924 2.132-1.38 3.2l-.001.003a86.138 86.138 0 0 1-4.734 9.8 38.718 38.718 0 0 1-5.788 7.73c-.078.093-.17.173-.26.252-.056.048-.11.096-.162.146a2.848 2.848 0 0 1-.014-.85c.11-.99.214-1.98.32-2.97.209-1.975.418-3.945.663-5.912.364-2.924.767-5.845 1.172-8.778l.01-.08c.076-.526.17-1.048.264-1.569.129-.715.258-1.429.338-2.153a.788.788 0 0 0-.412-.921.781.781 0 0 0-1.005.293 2.49 2.49 0 0 0-.394.752c-.06.212-.123.423-.186.634-.198.658-.395 1.313-.47 1.989-1.009 5.333-1.75 10.696-2.348 16.089l-.589 5.326a.614.614 0 0 1-.388.577 10.95 10.95 0 0 1-1.409.518 1.509 1.509 0 0 1-1.927-1.155 1.497 1.497 0 0 1 .079-.829c.095-.367-.079-.628-.451-.562-.24.046-.457.169-.62.35a1.645 1.645 0 0 0-.361 1.307 3.18 3.18 0 0 0 3.455 2.607c.309-.027.621-.084.94-.143l.312-.056a2.365 2.365 0 0 1-.046.413c-.204.988-.313 1.974-.422 2.959a38.583 38.583 0 0 0-.685 6.192c-.002.208.013.418.028.629zm26.222-12.9a12.641 12.641 0 0 0 1.766-3.741 6.303 6.303 0 0 0-1.766 3.74zm39.794 6.628c-.323.086-.632.178-.931.266-.591.175-1.148.34-1.714.438a5.125 5.125 0 0 1-5.964-3.504c.005-.049-.025-.103-.076-.191-.03-.054-.068-.12-.11-.207a4.518 4.518 0 0 1-.394.509 61.045 61.045 0 0 1-1.697 1.538 3.63 3.63 0 0 1-.863.47 1.676 1.676 0 0 1-1.395.087 1.68 1.68 0 0 1-.978-.996 6.293 6.293 0 0 1-.378-2.077 2.16 2.16 0 0 0-.017-.483c-.006-.061-.013-.121-.017-.181l-.121-.014-.302.533a35.141 35.141 0 0 1-2.822 4.378 10.39 10.39 0 0 1-2.309 2.305 5.205 5.205 0 0 1-1.743.845 2.932 2.932 0 0 1-3.025-.874 5.777 5.777 0 0 1-1.232-2.414c-.11-.345-.197-.696-.287-1.058l-.001-.002-.104-.412-.721-.08a2.69 2.69 0 0 1-1.685-.644 1.434 1.434 0 0 1-.563-1.141.783.783 0 0 1 .447-.746.663.663 0 0 1 .818.185 1.348 1.348 0 0 0 1.525.263l.069-.626c-.023-1.757.322-3.5 1.012-5.117a8.143 8.143 0 0 1 1.973-2.801 4.026 4.026 0 0 1 1.773-1.003 2.234 2.234 0 0 1 2.778 1.399c.317.87.345 1.818.079 2.704a9.831 9.831 0 0 1-2.326 4.285 13.036 13.036 0 0 1-2.73 2.326l-.494.309a6.056 6.056 0 0 0 1.03 2.904.989.989 0 0 0 1.056.532 1 1 0 0 0 .389-.156 4.972 4.972 0 0 0 1.756-1.342c.59-.69 1.155-1.395 1.668-2.12a35.456 35.456 0 0 0 3.105-5.466c.229-.487.459-.974.7-1.445.1-.206.221-.4.362-.58a1.15 1.15 0 0 1 1.148-.454 1.159 1.159 0 0 1 .903.842c.122.478.181.97.176 1.462.033.725.05 1.453.068 2.18v.002c.012.495.024.99.04 1.483.011.174.033.347.064.519l.174-.125a2.75 2.75 0 0 0 .268-.204l2.246-2.218c.376-.377.771-.733 1.185-1.068a1.2 1.2 0 0 1 1.447-.123 1.264 1.264 0 0 1 .533 1.407c-.02.181-.066.364-.113.55a7.863 7.863 0 0 0-.081.345 2.762 2.762 0 0 0 2.754 3.203 5.797 5.797 0 0 0 2.606-.709l.062-.56a6.826 6.826 0 0 1 1.52-4.454 3.113 3.113 0 0 1 1.473-1.104 1.978 1.978 0 0 1 2.654 1.91 4.55 4.55 0 0 1-.237 1.403 8.611 8.611 0 0 1-2.135 3.295c-.096.092-.187.19-.28.29a6.564 6.564 0 0 1-.163.173c.381.42.862.738 1.398.923 1.463.532 3.015.772 4.571.708a19.972 19.972 0 0 0 6.224-1.171 1.88 1.88 0 0 0 .142-.06c.21-.093.434-.194.745-.017a4.223 4.223 0 0 0-.166.171c-.069.073-.13.138-.199.193a15.075 15.075 0 0 1-7.289 2.859 9.955 9.955 0 0 1-4.913-.543 6.289 6.289 0 0 1-2.366-1.704zm-24.665-4.374.187.02a8.788 8.788 0 0 0 3.237-4.83c.091-.33.129-.671.112-1.013-.025-.501-.23-.605-.673-.384-.247.107-.471.26-.659.453-.382.423-.73.876-1.041 1.354a8.003 8.003 0 0 0-1.017 2.96c-.037.454-.099 1.013-.146 1.439v.001zm26.197-.43c.367-.385.629-.857.76-1.372a2.67 2.67 0 0 0-.76 1.372zm22.221 8.567c.044.196.112.386.202.566l.074.026c.046-.07.094-.139.141-.207.068-.097.135-.193.192-.29a36.399 36.399 0 0 0 2.351-5.165c1.624-4.385 3.149-8.826 4.482-13.329.521-1.763.925-3.562 1.321-5.345.278-1.233.394-2.497.344-3.759 0-.91-.175-1.813-.517-2.657a3.195 3.195 0 0 0-1.434-1.618 3.213 3.213 0 0 0-2.139-.339 7.07 7.07 0 0 0-2.886 1.213 16.153 16.153 0 0 0-5.609 6.471l-.315.62-.441-.871a6.356 6.356 0 0 0-1.36-1.796 2.69 2.69 0 0 0-3.658.002 4.415 4.415 0 0 0-1.3 1.885 7.06 7.06 0 0 0-.396 2.552c.018 1.1.188 2.193.505 3.247a17.044 17.044 0 0 0 3.38 6.287 48.052 48.052 0 0 0 5.242 5.207c.238.205.499.383.777.53.222.109.462.174.709.191a.997.997 0 0 0 1.027-.784c.056-.281.076-.483-.317-.486-.361-.003-.566-.215-.772-.429a1.533 1.533 0 0 0-.056-.058c-1.163-1.175-2.242-2.367-3.325-3.57-.745-.842-1.466-1.692-2.126-2.59a14.173 14.173 0 0 1-2.781-6.658 5.191 5.191 0 0 1 .201-2.587 3.8 3.8 0 0 1 .658-1.121.581.581 0 0 1 .775-.215.571.571 0 0 1 .213.2c.292.315.547.661.76 1.033.478.955.838 1.964 1.073 3.005.128.492.195.998.198 1.507.003.363.07.723.196 1.064a1.077 1.077 0 0 0 1.142.674 1.113 1.113 0 0 0 .982-.911c.026-.162.021-.326.015-.49a3.693 3.693 0 0 1-.001-.35c-.012-.413.01-.826.069-1.236.29-1.539.863-3.011 1.69-4.343a13.558 13.558 0 0 1 4.386-4.445 4.117 4.117 0 0 1 1.644-.665 1.083 1.083 0 0 1 1.295.737c.11.216.192.445.244.682.138.81.16 1.636.065 2.453a25.579 25.579 0 0 1-.908 4.78 448.859 448.859 0 0 1-2.446 7.794c-.481 1.475-.984 2.94-1.486 4.406-.376 1.099-.753 2.198-1.121 3.301a20.427 20.427 0 0 0-.978 4.584c-.033.432-.027.866.019 1.297z" clip-rule="evenodd" fill-rule="evenodd"></path>
        </g>
        <path stroke-width="2.237" stroke-opacity=".2" stroke="#FF0000" d="M160.051 87.067a56.354 56.354 0 0 1 3.13-3.237l-2.983 5.495 4.073-3.329c-1.531 2.214-4.393 6.512-3.593 5.994.8-.517 3.271-3.41 4.407-4.79-1.186 1.874-3.482 5.631-3.186 5.66.37.038 6.092-6.677 7.759-8.379 1.666-1.701 7.739-6.325 5.647-5.974-2.091.35-7.016 4.715-7.257 5.252-.241.536 6.311-1.422 7.681-2.032 1.37-.61-16.164 13.89-13.164 11.948 2.999-1.941 15.699-11.132 14.421-9.578-1.277 1.554-17.089 13.797-13.349 11.93 3.739-1.868 13.589-10.598 11.811-7.786-1.422 2.25-7.221 7.374-9.943 9.656l8.312-4.586-6.648 6.622 5.869-4.457-4.111 5.569c.808-.605 2.684-1.787 3.721-1.683" fill="none"></path>
        <defs fill="none">
            <radialGradient gradientTransform="rotate(15.688 -135.51 115.353) scale(226.477 139.229)" gradientUnits="userSpaceOnUse" r="1" cy="0" cx="0" id="svgcid-5njw88-zh10z1">
                <stop stop-opacity=".13" stop-color="#FFFCDC"></stop>
                <stop stop-opacity=".75" stop-color="#EDE8B8" offset=".233"></stop>
                <stop stop-opacity="0" offset="1"></stop>
            </radialGradient>
            <radialGradient gradientTransform="matrix(208.56287 .9428 -.83403 184.50111 .653 49.357)" gradientUnits="userSpaceOnUse" r="1" cy="0" cx="0" id="svgcid--17omn03f688w">
                <stop stop-opacity="0" stop-color="#ffffff"></stop>
                <stop stop-opacity=".211" stop-color="#ffffff" offset=".213"></stop>
                <stop stop-opacity=".81" stop-color="#ffffff" offset=".225"></stop>
                <stop stop-opacity=".36" stop-color="#ffffff" offset=".245"></stop>
                <stop stop-opacity=".7" stop-color="#ffffff" offset=".275"></stop>
                <stop stop-opacity="0" stop-color="#ffffff" offset=".384"></stop>
                <stop stop-opacity=".275" stop-color="#6A6A6A" offset=".674"></stop>
                <stop stop-opacity=".4" offset=".707"></stop>
                <stop stop-opacity=".01" stop-color="#ffffff" offset="1"></stop>
            </radialGradient>
            <radialGradient gradientTransform="matrix(36.49858 35.34007 -41.7057 43.07288 79.707 2.85)" gradientUnits="userSpaceOnUse" r="1" cy="0" cx="0" id="svgcid-v2rsarruvfpo">
                <stop stop-opacity=".13" stop-color="#FFFCDC"></stop>
                <stop stop-opacity=".75" stop-color="#EDE8B8" offset=".233"></stop>
                <stop stop-opacity="0" offset="1"></stop>
            </radialGradient>
            <radialGradient gradientTransform="rotate(.893 -456.666 4845.933) scale(34.9164 106.46)" gradientUnits="userSpaceOnUse" r="1" cy="0" cx="0" id="svgcid-pa6ue1kc3qhb">
                <stop stop-opacity="0" stop-color="#ffffff"></stop>
                <stop stop-opacity=".211" stop-color="#ffffff" offset=".213"></stop>
                <stop stop-opacity=".81" stop-color="#ffffff" offset=".225"></stop>
                <stop stop-opacity=".36" stop-color="#ffffff" offset=".245"></stop>
                <stop stop-opacity=".7" stop-color="#ffffff" offset=".275"></stop>
                <stop stop-opacity="0" stop-color="#ffffff" offset=".384"></stop>
                <stop stop-opacity=".275" stop-color="#6A6A6A" offset=".674"></stop>
                <stop stop-opacity=".4" offset=".707"></stop>
                <stop stop-opacity=".01" stop-color="#ffffff" offset="1"></stop>
            </radialGradient>
            <linearGradient gradientUnits="userSpaceOnUse" y2="107.651" x2="95.471" y1="36" x1="90" id="svgcid-dys85tz4a8ik">
                <stop stop-color="#FF0004"></stop>
                <stop stop-color="#820002" offset="1"></stop>
            </linearGradient>
            <linearGradient gradientUnits="userSpaceOnUse" y2="38.894" x2="100.635" y1="0" x1="90.396" id="svgcid-pd7iahz4x4y3">
                <stop stop-color="#FF0004"></stop>
                <stop stop-color="#820002" offset="1"></stop>
            </linearGradient>
            <filter color-interpolation-filters="sRGB" filterUnits="userSpaceOnUse" height="57.064" width="153.22" y="63.318" x="26.287" id="svgcid--w0ygk4-2ls5bg">
                <feFlood result="BackgroundImageFix" flood-opacity="0"></feFlood>
                <feBlend result="shape" in2="BackgroundImageFix" in="SourceGraphic"></feBlend>
                <feGaussianBlur result="effect1_foregroundBlur" stdDeviation=".08"></feGaussianBlur>
            </filter>
        </defs>
    </g>
</svg>
